<svg xmlns="http://www.w3.org/2000/svg" viewBox="0 0 132 32" width="132" height="32" role="img" aria-label="Zaply">
  <defs>
    <linearGradient id="zg" x1="0" y1="0" x2="32" y2="32" gradientUnits="userSpaceOnUse">
      <stop stop-color="#2bd47f"/>
      <stop offset="1" stop-color="#0d6b50"/>
    </linearGradient>
  </defs>
  <rect width="32" height="32" rx="8.5" fill="url(#zg)"/>
  <path d="M7.5 11.2a3 3 0 0 1 3-3h11a3 3 0 0 1 3 3v6a3 3 0 0 1-3 3h-5.2l-4.6 3.3a.5.5 0 0 1-.8-.4v-2.9h-.4a3 3 0 0 1-3-3v-6z" fill="#fff"/>
  <path d="M17.4 10.1l-5 6.1h3.1l-1.3 4.6 5-6.2h-3.1l1.3-4.5z" fill="url(#zg)"/>
  <text x="42" y="22" font-family="'Schibsted Grotesk', system-ui, sans-serif" font-size="20" font-weight="800" letter-spacing="-0.03em" fill="#15201c">Zaply</text>
</svg>
